<svg xmlns="http://www.w3.org/2000/svg" viewBox="0 0 257 262"><defs><linearGradient id="a" x1="15" y1="32.5" x2="80" y2="32.5" gradientUnits="userSpaceOnUse"><stop offset="0" stop-color="#0ab0bb"/><stop offset="1" stop-color="#53dfec"/></linearGradient></defs><circle cx="128.99" cy="133.72" r="128.01" fill="#ccf4f9"/><path d="M80.5 83.23h3.11v15.54H80.5V83.23zm6.7 0h9.57v2.58H90.3v4.05h5.52v2.6H90.3v6.3h-3.11V83.22zm11.11 7.84c0-5.12 3.3-8.13 7.22-8.13 1.97 0 3.55.94 4.56 1.99l-1.64 1.97c-.78-.76-1.68-1.3-2.86-1.3-2.35 0-4.12 2.02-4.12 5.35s1.6 5.42 4.05 5.42c1.32 0 2.37-.63 3.21-1.53l1.64 1.93c-1.28 1.49-2.94 2.29-4.96 2.29-3.93 0-7.12-2.81-7.12-8zm23 .29v9.24h-2.44v-9.24h-2.46c-.1 3.42-.67 6.82-3.15 9.41-.38-.5-1.26-1.34-1.83-1.72 2.02-2.14 2.54-4.87 2.67-7.68h-2.41v-2.31h2.44v-4.51h-2.06v-2.33h10.98v2.33h-1.74v4.51h2.02v2.31h-2.02zm-2.44-2.31v-4.51h-2.44v4.51h2.44zm12.49 4.47c-1.76 3.04-4.54 5.46-7.6 7.05-.4-.65-1.11-1.51-1.74-2.04 2.79-1.24 5.54-3.36 6.97-5.94l2.37.92zm-.77-11.27c-1.6 2.08-3.86 3.91-6.03 5.17-.38-.55-1.11-1.3-1.76-1.76 1.93-.97 4.22-2.67 5.42-4.37l2.37.97zm.33 5.73c-1.6 2.16-3.93 4.14-6.09 5.46-.4-.52-1.11-1.26-1.74-1.74 1.95-1.05 4.33-2.86 5.54-4.64l2.29.92zm14.9-.99c.44 6.13 1.72 10.98 3.25 10.98.44 0 .69-1.11.8-3.78.57.59 1.49 1.22 2.18 1.47-.38 3.97-1.22 4.93-3.21 4.93-3.59 0-5.17-6.21-5.67-13.61h-10.44v-2.44h10.31c-.04-1.13-.06-2.31-.06-3.46h2.69c-.02 1.15-.02 2.33.02 3.46h3.32c-.57-.71-1.62-1.57-2.46-2.2l1.66-1.36c.94.65 2.18 1.64 2.75 2.33l-1.43 1.24h1.97v2.44h-5.69zm-6.63 9.43c1.28-.23 2.62-.48 3.91-.73l.19 2.23c-3.44.76-7.14 1.53-9.85 2.1l-.69-2.52c1.07-.17 2.46-.38 3.97-.63v-5.06h-3.17V89.4h9.01v2.41h-3.36v4.62zm23.09.76c.8-.1 1.39-.21 1.93-.34 2.67-.63 4.72-2.54 4.72-5.56s-1.55-5.02-4.35-5.5c-.29 1.76-.65 3.7-1.24 5.65-1.24 4.2-3.04 6.76-5.31 6.76s-4.24-2.54-4.24-6.05c0-4.79 4.18-8.9 9.57-8.9s8.4 3.59 8.4 8.13-2.69 7.47-7.94 8.27l-1.55-2.46zm-1.62-6.3c.48-1.53.86-3.32 1.11-5.04-3.44.71-5.27 3.74-5.27 6.03 0 2.1.84 3.13 1.62 3.13.86 0 1.7-1.3 2.54-4.12zM47.15 112.23h5.14c3.19 0 5.63.92 5.63 3.82 0 1.43-.8 2.9-2.12 3.36v.1c1.68.4 2.92 1.57 2.92 3.67 0 3.13-2.6 4.58-6.03 4.58h-5.54v-15.54zm4.91 6.32c1.97 0 2.83-.8 2.83-2.04 0-1.36-.92-1.91-2.79-1.91h-1.85v3.95h1.81zm.36 6.83c2.12 0 3.28-.76 3.28-2.37 0-1.51-1.13-2.14-3.28-2.14h-2.16v4.51h2.16zm9.03-13.15h3.11v15.54h-3.11v-15.54zm6.7 0h3.44l2.65 7.26c.34.97.63 1.99.94 3h.1c.34-1.01.61-2.04.94-3l2.58-7.26h3.44v15.54h-2.83v-6.49c0-1.47.23-3.63.38-5.1h-.08l-1.26 3.65-2.39 6.53h-1.78l-2.41-6.53-1.24-3.65h-.08c.15 1.47.4 3.63.4 5.1v6.49h-2.79v-15.54zm32.65 5.19c.44 0 1.36-.04 1.91-.13v2.73c-.52-.04-1.32-.06-1.91-.06h-5.06c-.13 2.16-.59 3.93-1.34 5.4-.73 1.45-2.35 3.09-4.22 4.03l-2.46-1.78c1.49-.57 2.96-1.76 3.8-3 .86-1.3 1.22-2.88 1.3-4.64h-5.77c-.61 0-1.43.04-2.02.08v-2.75c.63.08 1.36.13 2.02.13h13.75zm-11.09-2.86c-.71 0-1.62.02-2.25.06v-2.71c.67.1 1.53.17 2.25.17h6.87c.71 0 1.55-.06 2.27-.17v2.71c-.71-.04-1.53-.06-2.27-.06h-6.87zm10.38-.48c-.44-.86-1.09-2.1-1.66-2.92l1.68-.69c.52.78 1.26 2.1 1.66 2.88l-1.68.73zm2.51-.96c-.44-.88-1.11-2.1-1.68-2.9l1.66-.69c.55.8 1.32 2.12 1.68 2.86l-1.66.73zm3.49 4.93c.76.06 2.29.13 3.38.13h11.27c.97 0 1.91-.08 2.46-.13v3.3c-.5-.02-1.57-.1-2.46-.1h-11.27c-1.2 0-2.6.04-3.38.1v-3.3zm37.6-3.67c-.23.4-.5.97-.69 1.49-.55 1.62-1.51 3.74-2.9 5.75.78.48 1.49.97 2.02 1.34l-1.91 2.46c-.5-.44-1.18-.94-1.95-1.49-1.87 2.04-4.35 3.93-7.75 5.23l-2.44-2.12c3.72-1.13 6.09-2.92 7.83-4.7a90.12 90.12 0 00-3.93-2.39l1.78-1.99c1.11.57 2.54 1.36 3.95 2.2 1.03-1.49 1.87-3.21 2.18-4.47h-6.03c-1.47 1.95-3.42 3.97-5.54 5.42l-2.27-1.74c3.7-2.27 5.65-5.14 6.7-6.97.31-.5.76-1.47.94-2.2l3.04.94c-.5.73-1.05 1.7-1.3 2.14l-.02.02h4.3c.65 0 1.36-.08 1.83-.23l2.14 1.32zm6.88-2.63c-.17.42-.42 1.47-.5 1.85-.29 1.39-1.01 5.54-1.01 7.62 0 .4.02.9.08 1.34.29-.73.63-1.43.92-2.1l1.3 1.01c-.59 1.74-1.28 3.99-1.49 5.1-.06.29-.13.76-.13.97.02.23.02.57.04.86l-2.39.17c-.42-1.45-.82-3.99-.82-6.8 0-3.13.63-6.63.86-8.23.08-.59.21-1.39.21-2.04l2.92.25zm4.87 10.27c-.17.67-.25 1.18-.25 1.74 0 .92.8 1.47 2.9 1.47 1.87 0 3.4-.17 5.21-.55l.06 2.81c-1.34.25-3.02.42-5.38.42-3.59 0-5.29-1.3-5.29-3.42 0-.86.15-1.74.36-2.71l2.39.23zm7.27-8.9v2.69c-2.56.23-6.32.23-8.92 0l-.02-2.69c2.56.36 6.7.27 8.94 0zm11.91 3.15c-.4 2.27-.97 4.3-1.72 6.11.92 1.22 1.68 2.39 2.16 3.4l-1.99 1.7c-.34-.76-.82-1.64-1.43-2.58a14.15 14.15 0 01-4.3 4.54c-.29-.5-1.15-1.49-1.68-1.95 1.95-1.13 3.4-2.75 4.47-4.77a59.016 59.016 0 00-3.51-4.26l1.78-1.41c.9.97 1.87 2.04 2.77 3.15.44-1.3.78-2.71 1.01-4.24l2.44.31zm10.83.77h-2.25v9.45c0 1.41-.25 2.14-1.05 2.54-.8.44-2.04.55-3.78.55-.08-.73-.44-1.93-.8-2.69 1.18.06 2.31.04 2.67.04.38 0 .5-.1.5-.44v-9.45h-5.27v-1.51h-9.24v-2.31h3.65v-3.21h2.39v3.21h3.88v1.43h4.58v-4.66h2.46v4.66h2.25v2.39zm-8.19 1.66c.99 1.39 1.99 3.19 2.33 4.43l-2.16 1.11c-.31-1.24-1.22-3.15-2.16-4.58l1.99-.97zm13.35-.99c0 3.38-.31 8.57-2.2 11.84-.46-.42-1.57-1.13-2.16-1.41 1.72-3 1.87-7.41 1.87-10.44v-5.29h7.47V110h2.6v2.41h7.58v2.37h-15.16v2.92zm-.38 9.07c.88-1.6 1.32-4.03 1.53-6.36l2.25.48c-.23 2.41-.61 5.19-1.55 6.87l-2.23-.99zm9.37.19c.63 0 .76-.48.84-3.38.52.44 1.55.84 2.2 1.01-.23 3.59-.86 4.6-2.81 4.6h-2.33c-2.23 0-2.75-.73-2.75-3.07v-7.33h2.48v7.31c0 .76.08.86.67.86h1.7zm.23-7.2c-1.01-.99-3.21-2.39-4.93-3.28l1.66-1.66c1.68.82 3.95 2.08 5.08 3.07l-1.81 1.87zm3.67.11c1.24 2.18 2.46 4.96 2.79 6.87l-2.46 1.01c-.27-1.87-1.36-4.79-2.56-7.01l2.23-.86z" fill="#0091c3"/><path d="M50.55 145.24c-.13.27-.27.78-.4 1.15 2.52.76 4.09 2.65 4.09 5 0 2.96-1.89 5.67-6.82 6.45l-1.11-1.74c3.86-.42 5.88-2.39 5.88-4.81 0-1.43-.9-2.71-2.62-3.25-1.15 2.9-2.81 5.12-4.49 6.55.15.57.31 1.11.48 1.62l-1.91.57c-.1-.31-.21-.65-.29-1.01-1.07.59-2.27 1.01-3.38 1.01-1.45 0-2.62-.88-2.62-2.81 0-2.67 2.29-5.46 5.17-6.78.04-.97.13-1.93.21-2.83h-1.01c-.99 0-2.6-.08-3.49-.15l-.06-1.93c.71.1 2.54.27 3.61.27h1.13l.15-1.41c.02-.36.06-.8.04-1.09l2.18.06c-.1.31-.19.69-.25.99-.08.4-.17.88-.25 1.39 2.6-.1 4.98-.38 7.18-.88l.02 1.93c-2.1.36-4.87.63-7.43.76-.06.71-.13 1.47-.19 2.25 1.11-.29 2.29-.46 3.32-.46.21 0 .4 0 .59.02.1-.38.21-.99.23-1.34l2.06.5zm-7.64 8.59c-.27-1.47-.46-3.09-.46-4.68-1.83 1.13-3.13 2.98-3.13 4.43 0 .78.34 1.15 1.07 1.15s1.6-.31 2.52-.9zm1.38-5.02c0 1.3.13 2.52.31 3.63 1.2-1.18 2.29-2.67 3.11-4.68h-.13c-1.26 0-2.37.25-3.3.55v.5zm16.27.7c1.93-1.55 4.12-2.27 6.45-2.27 3.38 0 5.52 2.08 5.52 4.54 0 3.76-3.19 6.45-11.3 5.77l-.65-2.16c6.42.82 9.68-.9 9.68-3.65 0-1.53-1.43-2.6-3.42-2.6-2.58 0-4.72.94-6.13 2.6-.34.4-.52.76-.69 1.11l-1.93-.46c.4-1.95.92-6.19 1.05-8.55l2.23.29c-.27 1.3-.63 4.09-.8 5.38zm.99-9.33c1.87.59 6.34 1.41 8.17 1.6l-.48 2.04c-2.04-.27-6.61-1.22-8.21-1.64l.52-1.99zm24.77-.12c.13.65.27 1.6.4 2.73 3.82.06 6.15 2.56 6.15 5.73 0 3.46-2.16 6.15-6.53 6.15-.19 0-.38 0-.57-.02a8.6 8.6 0 01-2.92 3.46l-1.95-1.18a7.093 7.093 0 002.81-2.81 6.46 6.46 0 01-3.23-3.11l1.22-1.49c.67 1.32 1.53 2.31 2.75 2.79.42-1.41.57-2.96.57-4.54 0-1.05-.04-2.08-.13-3.02-3.44.73-5.56 3.86-6.09 6.3-.08.38-.15.76-.13 1.18.02.4.13 1.43.25 1.99l-1.85.25c-.42-1.36-.71-3.55-.71-5.54 0-2.31.42-5.08.55-6.26.04-.4.04-.8.02-1.09l2.27.19c-.13.36-.23.76-.34 1.09-.25 1.24-.63 3.8-.55 5.31 1.26-2.75 3.67-4.62 6.4-5.21-.06-.61-.15-1.11-.23-1.51-.1-.46-.23-1.03-.36-1.36l2.18-.04zm4.51 8.52c0-2.08-1.22-3.82-3.95-3.97.08 1.01.13 2.1.13 3.17 0 1.7-.13 3.34-.52 4.87 2.69-.06 4.35-1.62 4.35-4.07zm18.75-6.3c-.42.27-.9.59-1.28.86-1.07.76-3.59 2.96-5.06 4.18.84-.27 1.64-.36 2.46-.36 3.49 0 6.07 2.14 6.07 5.04 0 3.34-2.67 5.71-7.33 5.71-2.88 0-4.81-1.3-4.81-3.17 0-1.53 1.41-2.96 3.44-2.96 2.58 0 4.07 1.66 4.37 3.65 1.41-.63 2.18-1.74 2.18-3.25 0-1.95-1.97-3.34-4.51-3.34-3.32 0-5.29 1.55-7.75 4.16l-1.53-1.55c1.62-1.32 4.22-3.51 5.44-4.51 1.15-.97 3.55-2.96 4.6-3.86-1.09.04-4.64.19-5.73.25-.52.04-1.07.08-1.53.15l-.06-2.16c.52.06 1.15.1 1.66.1 1.09 0 5.79-.13 6.93-.23.71-.08 1.09-.13 1.32-.21l1.13 1.51zm-4.05 13.46c-.17-1.53-1.07-2.54-2.46-2.54-.86 0-1.49.5-1.49 1.15 0 .9 1.07 1.47 2.48 1.47.52 0 1.01-.02 1.47-.08zm9.31-6.65c0-5.04 3.07-8.06 6.97-8.06 1.93 0 3.44.92 4.39 1.95l-1.32 1.55c-.8-.82-1.76-1.39-3.02-1.39-2.67 0-4.51 2.23-4.51 5.86s1.72 5.92 4.45 5.92c1.41 0 2.5-.63 3.42-1.64l1.3 1.53c-1.24 1.43-2.81 2.23-4.81 2.23-3.88 0-6.87-2.9-6.87-7.96zm22.05 3.27h-5.38l-1.32 4.41h-2.48l5.12-15.45h2.81l5.12 15.45h-2.58l-1.3-4.41zm-.59-1.91l-.61-2.08c-.52-1.68-.99-3.4-1.47-5.14h-.08c-.44 1.76-.92 3.46-1.43 5.14l-.63 2.08h4.22zm6.61-9.13h4.01c4.75 0 7.45 2.62 7.45 7.66s-2.71 7.79-7.33 7.79h-4.14v-15.45zm3.84 13.46c3.32 0 5.1-1.95 5.1-5.79s-1.78-5.69-5.1-5.69h-1.41v11.48h1.41zm25.8-8.15c.44 0 1.24-.02 1.76-.1v2.16c-.48-.02-1.22-.04-1.76-.04h-5.4c-.08 2.23-.5 4.07-1.3 5.58-.76 1.43-2.35 2.98-4.16 3.93l-1.95-1.43c1.55-.63 3.07-1.85 3.88-3.13.9-1.41 1.2-3.09 1.26-4.96h-6.07c-.63 0-1.32.02-1.91.06v-2.18c.61.06 1.26.1 1.91.1h13.73zm-11.1-3.34c-.71 0-1.49.04-2.06.08v-2.16c.63.08 1.36.13 2.04.13h7.1c.65 0 1.45-.04 2.1-.13v2.16c-.67-.04-1.43-.08-2.1-.08h-7.08zm10.64-.21c-.42-.84-1.09-2.1-1.66-2.9l1.34-.57c.52.76 1.28 2.06 1.7 2.88l-1.39.59zm2.06-4.34c.57.78 1.36 2.08 1.74 2.86l-1.36.59c-.44-.9-1.13-2.1-1.72-2.88l1.34-.57zm3.46 8.67c.67.06 1.97.13 3.11.13h11.4c1.03 0 1.85-.08 2.35-.13v2.58c-.46-.02-1.41-.08-2.33-.08h-11.42c-1.18 0-2.41.04-3.11.08v-2.58zm36.79-4.08c-.19.36-.44.88-.59 1.3-.52 1.74-1.55 3.97-2.98 6.03.78.5 1.49.97 2.02 1.34l-1.47 1.93c-.5-.42-1.2-.92-1.99-1.47-1.87 2.12-4.43 4.07-8 5.44l-1.91-1.68c3.7-1.11 6.26-3.02 8.08-4.98a79.225 79.225 0 00-4.3-2.62l1.39-1.57c1.18.61 2.79 1.53 4.33 2.46 1.15-1.66 2.1-3.63 2.48-5.1h-6.68c-1.39 1.91-3.28 3.93-5.52 5.46l-1.81-1.36c3.65-2.25 5.73-5.29 6.72-7.16.27-.42.65-1.28.8-1.89l2.39.76c-.4.63-.86 1.43-1.07 1.85l-.25.46h5.1c.59 0 1.18-.08 1.57-.23l1.7 1.05zM82.98 169.48c-.1.44-.23.97-.31 1.43-.1.63-.29 1.64-.48 2.58.84-.06 1.6-.1 2.08-.1 1.99 0 3.53.84 3.53 3.74 0 2.46-.31 5.75-1.18 7.54-.69 1.41-1.76 1.81-3.21 1.81-.8 0-1.78-.15-2.48-.31l-.36-2.18c.86.25 1.99.44 2.56.44.73 0 1.32-.19 1.7-.99.63-1.3.92-3.91.92-6.07 0-1.78-.8-2.08-2.12-2.08-.42 0-1.11.04-1.89.1-.76 3.07-2.23 7.83-4.28 11.15l-2.16-.86c2.08-2.77 3.57-7.24 4.3-10.06-.94.1-1.78.19-2.27.25-.55.06-1.47.19-2.06.29l-.21-2.27c.71.04 1.3.02 2.02 0 .67-.02 1.78-.1 2.94-.21.29-1.53.5-3.11.5-4.45l2.46.25zm7.47 2.71c1.26 1.89 2.79 5.25 3.42 7.03l-2.08.99c-.59-2.23-2.16-5.88-3.63-7.64l1.95-.86c.1.15.21.29.34.46-.42-.84-1.09-2.1-1.68-2.9l1.36-.57c.52.76 1.28 2.08 1.7 2.9l-1.39.59zm2.44-.91c-.44-.9-1.11-2.1-1.72-2.9l1.36-.57c.55.78 1.34 2.1 1.74 2.88l-1.39.59zm9.3-2.58c-.59 1.41-1.28 2.86-2.08 4.22v14.59h-1.85v-11.78c-.65.88-1.34 1.7-2.04 2.39-.19-.46-.73-1.51-1.07-1.97 2.06-1.93 4.03-4.98 5.21-8.06l1.83.61zm6.7 11.13c-.17 1.39-.5 2.69-1.28 3.84 2.02 1.05 4.56 1.72 7.45 2.02-.38.42-.9 1.22-1.15 1.76-2.9-.42-5.4-1.2-7.43-2.39-1.05.99-2.5 1.81-4.54 2.41-.23-.44-.78-1.22-1.2-1.62 1.87-.44 3.21-1.11 4.14-1.89-1.13-.92-2.08-2.02-2.81-3.3l1.6-.5c.59.97 1.39 1.81 2.35 2.52.55-.88.82-1.85.94-2.86h-4.87v-5.9h5v-1.81h-5.52v-1.78h5.52v-2.08h1.93v2.08h5.79v1.78h-5.79v1.81h5.19v5.9h-5.31zm-1.81-1.62v-2.67h-3.21v2.67h3.21zm1.93-2.66v2.67h3.32v-2.67h-3.32zm25.76 9.42c0 1.13-.27 1.72-1.03 2.02-.78.31-1.99.36-3.93.34-.08-.52-.4-1.39-.65-1.89 1.34.06 2.73.04 3.13.04.38 0 .52-.13.52-.52v-3.76h-5.08v6h-1.95v-6h-4.83c-.34 2.31-1.09 4.66-2.62 6.36-.29-.38-1.09-1.05-1.53-1.28 2.29-2.54 2.5-6.26 2.5-9.22v-7.47h15.47v15.39zm-8.99-5.62v-3.11h-4.56v.84c0 .71-.02 1.49-.08 2.27h4.64zm-4.55-7.9v2.96h4.56v-2.96h-4.56zm11.59 0h-5.08v2.96h5.08v-2.96zm0 7.9v-3.11h-5.08v3.11h5.08zm23.49-7.79h-2.5v13.27c0 1.26-.31 1.91-1.2 2.2-.9.36-2.37.38-4.47.38-.1-.57-.5-1.53-.82-2.1 1.6.08 3.34.06 3.84.06.46-.02.61-.15.61-.59v-13.23h-14.11v-1.95h18.64v1.95zm-14.7 10.64v1.64h-1.89v-9.53h8.65v7.89h-6.76zm0-6.05v4.2h4.83v-4.2h-4.83zm24.13-6.57c1.07 1.45 2.2 3.4 2.62 4.72l-1.74.71c-.1-.34-.27-.73-.46-1.18-2.88.17-5.77.36-7.92.48l-.17-1.87c.48-.02 1.01-.04 1.6-.06.67-1.32 1.36-3.02 1.74-4.3l2.04.46c-.52 1.26-1.15 2.6-1.74 3.76l3.59-.17a22.6 22.6 0 00-1.2-1.93l1.64-.63zm1.2 15.73c0 .92-.19 1.43-.8 1.74-.65.29-1.57.31-2.86.31-.1-.5-.38-1.26-.65-1.76.88.04 1.74.04 2.04.02.27 0 .34-.08.34-.34v-1.99h-3.86v4.09h-1.83v-11.8h7.62v9.72zm-5.8-8.08v1.49H165v-1.49h-3.86zm3.87 4.57v-1.6h-3.86v1.6h3.86zm6.49-4.43c-2.2 0-2.75-.55-2.75-2.54v-6.63h1.95v3.28c1.62-.57 3.25-1.26 4.37-1.85l1.26 1.41c-1.62.73-3.72 1.47-5.63 2.04v1.74c0 .69.15.82 1.03.82h2.86c.76 0 .88-.34.97-2.29.42.31 1.22.61 1.76.71-.21 2.62-.78 3.32-2.56 3.32h-3.25zm3.23 8.17c.82 0 .97-.4 1.05-2.65.44.29 1.22.61 1.74.73-.23 2.86-.78 3.61-2.62 3.61h-3.38c-2.2 0-2.77-.57-2.77-2.52v-6.82h1.93V181c1.72-.61 3.46-1.36 4.6-2.1l1.26 1.43c-1.6.92-3.84 1.68-5.86 2.29v2.08c0 .71.17.84 1.09.84h2.96z"/><circle cx="47.5" cy="32.5" r="32.5" fill="url(#a)"/><path d="M38.79 40.71c7.01-6.28 11.16-11.12 11.16-15.1 0-2.62-1.43-4.18-3.87-4.18-1.88 0-3.45 1.22-4.74 2.65l-2.79-2.79c2.37-2.51 4.67-3.9 8.19-3.9 4.88 0 8.12 3.14 8.12 7.95s-3.87 9.69-8.58 14.3c1.29-.14 3-.28 4.18-.28h5.61v4.32H38.78v-2.96z" fill="#fff"/></svg>