<svg xmlns="http://www.w3.org/2000/svg" viewBox="0 0 258 262"><defs><linearGradient id="a" x1="19" y1="32.5" x2="84" y2="32.5" gradientUnits="userSpaceOnUse"><stop offset="0" stop-color="#0ab0bb"/><stop offset="1" stop-color="#53dfec"/></linearGradient></defs><circle cx="129.01" cy="133.72" r="128.01" fill="#ccf4f9"/><path d="M62.04 95.73c-.71 1.81-1.89 3.61-3.09 4.79-.34-.31-1.09-.88-1.51-1.18 1.15-1.01 2.18-2.54 2.77-4.07l1.83.46zm4.05 3.43c-.38 1.32-.86 2.54-1.41 3.67.97.88 1.83 1.76 2.39 2.5l-1.26 1.6c-.48-.69-1.24-1.53-2.12-2.41a15.612 15.612 0 01-4.87 4.87c-.25-.4-.94-1.2-1.34-1.55 1.99-1.09 3.61-2.67 4.81-4.64-.86-.8-1.78-1.55-2.65-2.23l1.13-1.34c.78.57 1.6 1.22 2.41 1.91.4-.88.71-1.78.99-2.77l1.91.4zm1.98-4.5H57.93V92.9h4.2v-2.67h1.91v2.67h4.03v1.76zm-1.45 5.19c-.4-1.09-1.45-2.79-2.44-4.01l1.53-.76c1.03 1.18 2.1 2.77 2.52 3.88l-1.62.88zm9.84-5s0 .67-.02.92c-.19 8.67-.36 11.65-1.03 12.56-.42.63-.84.8-1.51.88-.63.1-1.66.08-2.67.04-.04-.52-.25-1.3-.55-1.83 1.03.08 1.93.1 2.33.1.36 0 .57-.06.76-.36.46-.57.67-3.23.84-10.46h-2.62c-.27 5.38-1.18 9.91-4.43 12.77-.31-.44-.94-1.09-1.43-1.39 2.98-2.52 3.8-6.55 4.01-11.38h-2.29v-1.87h2.35c.04-1.43.04-2.92.04-4.45h1.87c0 1.53-.02 3-.06 4.45h4.41zm7.16 5.88c-1.36.65-2.77 1.3-3.93 1.83l-.94-1.6c1.32-.44 3.32-1.24 5.25-2.04l.36 1.47-.36.17 1.32-.06c.46-.44.97-.94 1.47-1.47-.82-.71-1.99-1.57-2.96-2.2l.94-1.09c.19.1.36.21.57.34.44-.61.9-1.32 1.26-1.93h-7.05v-1.78h7.58v-2.2h2.02v2.2h7.79v1.78H88.1l.44.17c-.65.86-1.41 1.78-2.04 2.52.48.34.97.69 1.36 1.01.78-.9 1.51-1.81 2.06-2.6l1.55.71c-1.24 1.45-2.75 3.11-4.18 4.47l2.96-.15c-.31-.48-.67-.97-1.01-1.39l1.41-.61c.36.44.76.92 1.11 1.43l1.2-.97c1.55.76 3.57 1.93 4.62 2.77l-1.45 1.22c-.88-.8-2.69-1.95-4.2-2.75.52.73.97 1.49 1.2 2.08l-1.49.73a8.21 8.21 0 00-.55-1.13c-2.6.21-5.19.4-7.2.55l-.27-1.47zm5.52 2.9h8.4v1.81h-8.4v4.01h-2.02v-4.01h-8.23v-1.81h8.23v-1.51h2.02v1.51zm-8.42-8.8c1.13.59 2.58 1.53 3.3 2.2l-1.36 1.18c-.67-.67-2.1-1.66-3.21-2.33l1.28-1.05zm11.32 2.39c.99-.69 2.31-1.83 3.04-2.65l1.74.86a24.16 24.16 0 01-3.36 2.56l-1.43-.78zm16.45 9.26c.73-.06 1.34-.17 1.85-.29 2.67-.61 5.04-2.54 5.04-5.9 0-3.02-1.81-5.4-5-5.79-.29 1.87-.67 3.88-1.24 5.84-1.26 4.24-2.98 6.61-5.06 6.61s-3.95-2.33-3.95-5.79c0-4.62 4.09-8.63 9.3-8.63s8.17 3.49 8.17 7.85-2.79 7.37-7.87 8.08l-1.24-1.97zm-1.47-6.59c.52-1.64.92-3.53 1.13-5.35-3.74.61-5.92 3.86-5.92 6.42 0 2.39 1.07 3.49 1.91 3.49.9 0 1.91-1.34 2.88-4.56zm16.07-4.64c-.02 1.3 0 3.07.15 4.68.31 3.28 1.15 5.46 2.54 5.46 1.05 0 1.95-2.27 2.41-4.18l1.68 1.95c-1.32 3.57-2.6 4.81-4.14 4.81-2.1 0-4.03-2.02-4.6-7.5-.21-1.83-.23-4.3-.23-5.56 0-.52-.02-1.39-.15-1.95l2.54.04c-.1.61-.21 1.68-.21 2.25zm14.57 8.65l-2.16.84c-.34-3.57-1.53-8.04-3.63-10.52l2.08-.69c1.91 2.41 3.44 6.99 3.72 10.37zm5.11-8.65c-.02 1.3 0 3.07.15 4.68.31 3.28 1.15 5.46 2.54 5.46 1.05 0 1.95-2.27 2.41-4.18l1.68 1.95c-1.32 3.57-2.6 4.81-4.14 4.81-2.1 0-4.03-2.02-4.6-7.5-.21-1.83-.23-4.3-.23-5.56 0-.52-.02-1.39-.15-1.95l2.54.04c-.1.61-.21 1.68-.21 2.25zm14.57 8.65l-2.16.84c-.34-3.57-1.53-8.04-3.63-10.52l2.08-.69c1.91 2.41 3.44 6.99 3.72 10.37zm9.2-.9c-.29-.55-.92-1.45-1.53-2.27v8.65h-1.89v-8.34c-.78 1.85-1.7 3.59-2.6 4.75-.21-.55-.65-1.34-.97-1.81 1.28-1.47 2.62-4.03 3.42-6.28h-2.88v-1.83h3.02v-2.81c-.9.17-1.81.29-2.65.4-.08-.44-.34-1.09-.57-1.51 2.25-.31 4.85-.9 6.34-1.53l1.34 1.49c-.76.29-1.64.55-2.58.78v3.19h2.12v-.36h4.93v-.92h-3.86v-1.22h3.86v-.9h-4.28v-1.26h4.28v-1.07h1.95v1.07h4.56v1.26h-4.56v.9h4.05v1.22h-4.05v.92h5.04v1.28h-11.8v.9h-2.25v1.03c.69.61 2.29 2.27 2.67 2.73l-1.13 1.53zm11.4 3.06h-6.99l1.45.92c-1.26.99-3.32 1.99-5 2.52-.29-.38-.84-.92-1.24-1.26 1.64-.46 3.55-1.36 4.56-2.18h-2.23V97.7h9.45v8.36zm-1.83-7.09h-5.86v1.13h5.86v-1.13zm0 2.33h-5.86v1.15h5.86v-1.15zm0 2.35h-5.86v1.15h5.86v-1.15zm-.79 2.41c1.39.8 3 1.78 3.97 2.44l-1.7.94c-.82-.63-2.29-1.64-3.57-2.44l1.3-.94zm10.54-1.13c.92 1.45 2.65 2.12 4.96 2.2 2.33.08 6.99.02 9.62-.15-.23.46-.55 1.39-.65 1.99-2.37.1-6.59.15-8.99.04-2.67-.1-4.47-.8-5.79-2.41-.99.86-1.99 1.7-3.09 2.6l-1.01-2.02c.94-.59 2.06-1.36 3.04-2.16v-4.93h-2.69v-1.81h4.6v6.63zm-.97-9.81c-.67-.99-2.18-2.39-3.51-3.32l1.45-1.18c1.3.9 2.88 2.2 3.59 3.21l-1.53 1.28zm9.18-4.01c.42 6.19 1.89 11.17 6.13 13.33-.46.31-1.15 1.01-1.53 1.49-2.77-1.64-4.39-4.35-5.33-7.75-1.07 3.4-2.77 5.98-5.25 7.75-.31-.38-1.07-1.11-1.53-1.47 2.98-1.85 4.68-5.04 5.46-9.2l.71.1c-.13-.78-.21-1.6-.29-2.41h-3.74V91.1h5.38zM49.62 128.05l-1.22 1.87c-1.11-.8-3.34-2.23-4.68-2.94l1.2-1.81c1.32.71 3.72 2.18 4.7 2.88zm2.12 4.94c3.51-1.99 6.34-4.81 8.04-7.79l1.26 2.23c-1.87 2.86-4.79 5.54-8.19 7.52-2.12 1.24-5.06 2.25-6.97 2.6l-1.24-2.16c2.33-.4 4.89-1.18 7.1-2.39zm1.03-9.58l-1.24 1.81c-1.07-.78-3.32-2.27-4.62-3l1.2-1.81c1.3.73 3.67 2.29 4.66 3zm24.61 12.01l-.92 2.06c-2.79-1.2-9.22-2.62-12.6-3.13l.84-2.06c3.55.55 9.81 2.02 12.68 3.13zm-.82-6.65l-.82 2.04c-2.44-.92-7.66-2.12-10.71-2.58l.78-1.99c2.92.48 8.13 1.6 10.75 2.54zm1.41-5.67l-.86 2.06c-2.5-.92-8.19-2.18-11.13-2.56l.78-1.95c2.75.34 8.57 1.53 11.21 2.46zm17.37 11.65c.48 0 1.34-.04 1.83-.08v2.14c-.4-.02-1.28-.04-1.78-.04H84.07c-.69 0-1.18.02-1.89.04v-2.16c.55.06 1.22.1 1.89.1h7.26c.29-1.78.84-5.4.9-6.57h-6.24c-.63 0-1.3.04-1.87.06v-2.18c.52.06 1.32.1 1.85.1h5.96c.38 0 1.05-.06 1.26-.17l1.6.78c-.06.23-.13.55-.17.76-.17 1.34-.76 5.27-1.05 7.22h1.76zm6.6 1.28c.21-.42.23-.73.23-1.18v-11.74c0-.67-.08-1.64-.19-2.12h2.6c-.1.65-.19 1.41-.19 2.1v11.48c3.78-1.01 8.55-3.74 11.19-7.05l1.2 1.85c-2.79 3.42-7.14 5.96-12.24 7.54-.25.06-.65.19-1.05.44l-1.55-1.32zm17.96-8.63c.67.06 1.97.13 3.11.13h11.4c1.03 0 1.85-.08 2.35-.13v2.58c-.46-.02-1.41-.08-2.33-.08h-11.42c-1.18 0-2.41.04-3.11.08v-2.58zm25.83.65l-1.22 1.87c-1.11-.8-3.34-2.23-4.68-2.94l1.2-1.81c1.32.71 3.72 2.18 4.7 2.88zm2.12 4.94c3.51-1.99 6.34-4.81 8.04-7.79l1.26 2.23c-1.87 2.86-4.79 5.54-8.19 7.52-2.12 1.24-5.06 2.25-6.97 2.6l-1.24-2.16c2.33-.4 4.89-1.18 7.1-2.39zm1.03-9.58l-1.24 1.81c-1.07-.78-3.32-2.27-4.62-3l1.2-1.81c1.3.73 3.67 2.29 4.66 3zm22.23 14.7c.02-.19.02-.52.02-.84h-8.23c-.63 0-1.41.04-1.76.04v-2.06c.36.04 1.03.08 1.76.08h8.23v-3.32h-7.18c-.78 0-1.62 0-2.08.04v-1.99c.48.02 1.3.06 2.06.06h7.2v-3.09h-7.41c-.65 0-1.91.04-2.33.08v-2.04c.46.06 1.68.08 2.33.08h8.04c.48 0 1.13-.02 1.43-.02-.02.25-.02.8-.02 1.22v10.48c0 .34.02.92.04 1.26h-2.1zm15.07-5.88c3.38-2.08 6-5.23 7.29-7.92l1.28 2.29c-1.51 2.71-4.09 5.58-7.37 7.6-2.12 1.3-4.79 2.54-8.04 3.13l-1.41-2.16c3.51-.52 6.24-1.7 8.25-2.94zm-.71-6.72l-1.66 1.7c-1.09-1.11-3.7-3.38-5.25-4.45l1.53-1.64c1.49.99 4.2 3.17 5.38 4.39zm13.42-2.9c1.51-.15 5.23-.5 9.05-.82 2.2-.19 4.3-.31 5.71-.36l.02 2.12c-1.15 0-2.96.02-4.05.29-2.75.84-4.58 3.78-4.58 6.24 0 3.8 3.53 5.04 6.95 5.21l-.76 2.23c-4.07-.21-8.34-2.39-8.34-6.97 0-3.15 1.83-5.67 3.51-6.74-1.81.19-6.91.69-9.24 1.2l-.21-2.29c.8-.02 1.51-.06 1.93-.1zm13.57 6.13l-1.3.59a19.41 19.41 0 00-1.68-2.94l1.26-.55c.5.73 1.28 2.02 1.72 2.9zm2.39-.96l-1.28.63c-.55-1.07-1.09-1.99-1.76-2.9l1.26-.57c.5.71 1.32 1.97 1.78 2.83z"/><path d="M93.19 162.11h3.07v2.18h-3.07v3.25h-2.18v-3.25H87.9v-2.18h3.11v-1.26h-2.65v-7.58h2.62v-1.15h-2.83v-2.16h2.83v-1.97h2.18v1.97h3.15v2.16h-3.15v1.15h2.71v.08c1.95-1.26 3.8-3.51 4.7-5.35h2.16c1.28 2.1 3.23 4.2 5.17 5.21-.46.59-.92 1.45-1.26 2.16-.69-.44-1.39-1.01-2.06-1.62v1.36h-5.77v-1.18c-.63.59-1.3 1.13-1.99 1.57-.19-.52-.59-1.24-.94-1.76v7.1h-2.69v1.26zm-3.11-5.86h1.26v-1.26h-1.26v1.26zm0 2.86h1.26v-1.24h-1.26v1.24zm4.03-4.12h-1.28v1.26h1.28v-1.26zm0 2.88h-1.28v1.24h1.28v-1.24zm7.43 7.83c0 .76-.08 1.24-.5 1.55s-.94.31-1.64.31c-.04-.48-.23-1.22-.44-1.7h.71c.13 0 .17-.04.17-.21v-2.06h-1.49v3.91h-1.7v-11.21h4.89v9.41zm-3.19-7.66v1.07h1.49v-1.07h-1.49zm1.49 3.8v-1.11h-1.49v1.11h1.49zm4.14-8.69c-.88-.92-1.68-1.95-2.25-2.88-.52.92-1.26 1.93-2.14 2.88h4.39zm.04 11.19h-1.7v-7.52h1.7v7.52zm.97-8.38h1.95v9.51c0 .94-.17 1.45-.76 1.74-.61.29-1.45.34-2.69.34a6.92 6.92 0 00-.57-1.83c.76.02 1.51.02 1.74.02.23-.02.31-.08.31-.29v-9.49zm9.24 6.76c.86 1.41 2.44 1.97 4.62 2.06 2.46.1 7.18.04 9.97-.17-.27.59-.65 1.81-.78 2.52-2.52.13-6.74.17-9.24.06-2.58-.1-4.3-.69-5.67-2.33-.92.82-1.85 1.64-3 2.52l-1.22-2.6c.9-.52 1.95-1.22 2.88-1.93v-4.43h-2.41v-2.29h4.85v6.59zm-1.45-9.43c-.65-1.01-2.14-2.39-3.38-3.32l1.85-1.51c1.26.88 2.79 2.18 3.51 3.17l-1.97 1.66zm10.58 4.85c.92 1.97 2.6 3.36 5.1 4.01-.52.48-1.24 1.45-1.57 2.1-2.37-.82-3.99-2.27-5.06-4.33-.84 1.57-2.37 3.11-5.1 4.28-.31-.52-1.09-1.39-1.66-1.81 3.19-1.18 4.41-2.75 4.87-4.26h-4.87v-2.25h5.14v-2.02h-4.43v-2.2h2.1c-.34-.84-.92-1.93-1.55-2.79l2.12-.88c.78.97 1.55 2.27 1.83 3.19l-1.11.48h4.68l-1.07-.38c.61-.92 1.34-2.31 1.74-3.32l2.56.78a44.06 44.06 0 01-1.99 2.92h2.62v2.2h-5v2.02h5.69v2.25h-5.04zm20.67 6.26c2.02.65 4.22 1.45 5.54 2.02l-2.77 1.2c-1.24-.63-3.42-1.51-5.61-2.23l1.6-.99h-5.61l1.66.76c-1.74 1.03-4.41 1.97-6.55 2.5-.4-.48-1.28-1.36-1.81-1.78 1.95-.34 4.09-.86 5.56-1.47h-2.86v-6.24c-.48.1-.99.19-1.55.27-.21-.52-.8-1.47-1.18-1.93 2.6-.34 4.12-.86 4.98-1.55h-1.83l-.08.19-2.27-.15c.46-1.03.97-2.54 1.32-3.78h3.99v-.84h-4.77v-1.47h4.77v-.9h2.27v.9h2.33v-.9h2.37v.9h4.45v3.76h-4.45v.82h5.82s-.02.42-.04.65c-.1 1.36-.23 2.12-.59 2.5-.31.31-.78.48-1.22.5-.08 0-.19.02-.31.02v7.24h-3.17zm-9.89-10.92h2.29c.08-.25.13-.52.13-.82h-2.12l-.29.82zm10.52 4.29h-9.03v.82h9.03v-.82zm0 2.16h-9.03v.84h9.03v-.84zm-9.03 3.04h9.03v-.86h-9.03v.86zm2.75-8.02c-.23.5-.57.97-1.03 1.39h3.82v-1.39h-2.79zm2.79-2.29h-2.33l-.06.82h2.39v-.82zm-2.33-1.45h2.33v-.84h-2.33v.84zm4.7-.84v.84h2.18v-.84h-2.18zm0 4.58v1.39h1.83c-.06-.25-.17-.5-.25-.69.48.06.92.08 1.15.06.19 0 .31 0 .44-.15.08-.1.15-.29.19-.61h-3.36zm16.86 7.79c.04-.61.06-1.57.08-2.48-1.53.84-2.37 1.66-2.37 2.69 0 1.15.99 1.47 3.02 1.47 1.76 0 4.07-.23 5.9-.61l-.08 2.71c-1.39.17-3.93.34-5.88.34-3.25 0-5.71-.78-5.71-3.46s2.52-4.33 4.89-5.54c-.34-.52-.88-.71-1.45-.71-1.18 0-2.46.67-3.25 1.43-.63.63-1.22 1.39-1.93 2.29l-2.23-1.66c2.18-2.02 3.65-3.86 4.58-5.71h-.25c-.84 0-2.37-.04-3.51-.15v-2.44c1.05.17 2.6.23 3.65.23h1.01c.25-.94.4-1.78.42-2.37l2.73.23c-.1.5-.25 1.22-.5 2.06 1.95-.1 4.05-.27 5.88-.61l-.02 2.44c-1.99.29-4.56.46-6.78.55-.34.73-.76 1.49-1.2 2.1.55-.27 1.66-.42 2.35-.42 1.26 0 2.31.55 2.77 1.62 1.07-.5 1.95-.86 2.81-1.24.8-.36 1.53-.71 2.29-1.07l1.05 2.41c-.67.17-1.76.59-2.48.88-.92.36-2.1.82-3.38 1.41.02 1.15.06 2.69.08 3.63h-2.5zm-75.26 32.49c.02-.34.02-.69.02-1.09h-9.57c-.82 0-2.02.06-2.71.13v-3c.73.06 1.68.13 2.62.13h9.68v-8.69h-9.43c-.88 0-2.02.04-2.6.08v-2.92c.78.08 1.87.13 2.6.13h10.56c.61 0 1.49-.02 1.85-.04-.02.48-.06 1.32-.06 1.93v10.88c0 .73.04 1.85.08 2.48h-3.04zm22.11-14.7c-.17.23-.55.88-.73 1.3-.71 1.64-1.89 3.88-3.3 5.77 2.08 1.81 4.62 4.49 5.86 6l-2.39 2.08c-1.36-1.89-3.32-4.03-5.29-5.94-2.23 2.35-5.02 4.54-7.89 5.9l-2.16-2.27c3.38-1.28 6.63-3.82 8.61-6.03 1.39-1.57 2.67-3.65 3.13-5.14h-7.12c-.88 0-2.04.13-2.48.15v-2.98c.57.08 1.85.15 2.48.15h7.39c.92 0 1.76-.13 2.18-.27l1.72 1.28zm17.45 9.41c-2.16-1.13-5.31-2.35-7.58-3.13v5.94c0 .61.1 2.08.19 2.92h-3.28c.13-.82.21-2.08.21-2.92V180.7c0-.76-.06-1.81-.21-2.54h3.28c-.08.73-.19 1.66-.19 2.54v3.09c2.81.82 6.84 2.31 8.78 3.25l-1.2 2.9zm20.1-9.03l1.53.94c-.23.42-.5.99-.69 1.51-.52 1.62-1.51 3.74-2.9 5.73.78.5 1.49.97 2.02 1.34l-1.89 2.48c-.5-.44-1.2-.94-1.95-1.49-1.89 2.04-4.35 3.93-7.75 5.23l-2.44-2.12c3.72-1.13 6.09-2.92 7.81-4.7-1.41-.92-2.83-1.78-3.91-2.39l1.76-1.99c1.11.57 2.54 1.36 3.95 2.2 1.03-1.49 1.87-3.21 2.18-4.47h-6.03c-1.47 1.95-3.42 3.97-5.52 5.42l-2.27-1.74c3.67-2.27 5.63-5.17 6.68-6.97.31-.5.76-1.49.94-2.2l3.04.94c-.5.73-1.03 1.68-1.28 2.14l-.02.02h4.3c.57 0 1.18-.06 1.66-.19-.4-.78-.92-1.72-1.39-2.39l1.66-.67c.52.76 1.26 2.1 1.66 2.88l-1.18.5zm1.99-4.33c.55.78 1.32 2.1 1.7 2.86l-1.68.71c-.42-.88-1.09-2.1-1.68-2.9l1.66-.67zm20.27 5.46c-.17.46-.34 1.26-.42 1.68-.36 2.02-.92 4.03-1.95 5.94-1.68 3.11-4.83 5.33-8.57 6.3l-2.18-2.52c.94-.17 2.1-.48 2.96-.82 1.74-.65 3.59-1.89 4.77-3.59 1.07-1.53 1.62-3.53 1.87-5.4h-10.41v3.07c0 .48.02 1.13.06 1.55h-2.9c.06-.52.1-1.2.1-1.76v-3.63c0-.46-.02-1.3-.1-1.81.73.08 1.34.1 2.14.1h4.49v-1.62c0-.59-.02-1.03-.17-1.93h3.23c-.1.9-.15 1.34-.15 1.93v1.62h3.65c.88 0 1.39-.1 1.74-.23l1.83 1.11zm10.59 8c3.57-2.12 6.32-5.33 7.64-8.17l1.64 2.96c-1.6 2.83-4.39 5.73-7.77 7.77-2.12 1.28-4.83 2.46-7.79 2.96l-1.76-2.77c3.28-.46 6-1.53 8.04-2.75zm0-6.8l-2.14 2.2c-1.09-1.18-3.72-3.46-5.25-4.54l1.97-2.1c1.47.99 4.2 3.17 5.42 4.43z" fill="#0091c3"/><circle cx="51.5" cy="32.5" r="32.5" fill="url(#a)"/><path d="M44.15 39.53h5.54V23.21h-4.67v-3.17c2.58-.49 4.36-1.15 6-2.16h3.8v21.65h4.85v4.15H44.15v-4.15z" fill="#fff"/></svg>