<svg xmlns="http://www.w3.org/2000/svg" viewBox="0 0 257 262"><defs><linearGradient id="a" x1="15" y1="32.5" x2="80" y2="32.5" gradientUnits="userSpaceOnUse"><stop offset="0" stop-color="#0ab0bb"/><stop offset="1" stop-color="#53dfec"/></linearGradient></defs><circle cx="128.03" cy="134.03" r="128.01" fill="#ccf4f9"/><path d="M40.47 81.19h6.95v2.27h-4.47v11.15h-2.48V81.19zm12.27 6.65c-.4-1.32-1.43-3.36-2.46-4.83l2.27-.9c1.11 1.45 2.14 3.38 2.6 4.72l-2.41 1.01zm7.16.7h6.68v12.37h-2.67v-.86H50.3v-2.48h13.61v-2.18H51.5v-2.41h12.41v-1.93H50.79v-2.5h6.36v-7.26h2.75v7.26zm7.03-5.8c-.92 1.87-1.99 3.86-2.9 5.19l-2.18-.76c.82-1.45 1.78-3.61 2.29-5.25l2.79.82zm13.78 4.33c-1.24.27-2.65.5-4.03.67-.19.9-.4 1.83-.63 2.67-.76 2.92-2.16 7.18-3.3 9.62l-2.92-.97c1.24-2.08 2.81-6.45 3.59-9.36.15-.55.29-1.13.44-1.72-.48.02-.94.04-1.36.04-1.01 0-1.78-.04-2.52-.08l-.06-2.6c1.07.13 1.76.17 2.62.17.61 0 1.22-.02 1.85-.06.08-.46.15-.86.19-1.2.1-.78.13-1.62.08-2.1l3.17.25c-.15.57-.34 1.49-.44 1.95l-.17.8c1.18-.19 2.35-.42 3.49-.69v2.62zm-.42 6.82c-.17.59-.29 1.28-.29 1.74 0 .9.52 1.57 2.75 1.57 1.39 0 2.83-.15 4.33-.42l-.1 2.67c-1.18.15-2.58.29-4.24.29-3.51 0-5.29-1.22-5.29-3.32 0-.94.19-1.95.36-2.77l2.5.23zm-1.22-5.23c1.15-.1 2.65-.21 3.99-.21 1.18 0 2.44.06 3.65.19l-.06 2.5c-1.03-.13-2.31-.25-3.57-.25-1.45 0-2.71.06-4.01.23v-2.46zm24.07-3.99c-.5.31-.99.63-1.45.94-1.11.78-3.3 2.62-4.6 3.67.69-.19 1.28-.23 1.95-.23 3.53 0 6.21 2.2 6.21 5.23 0 3.28-2.5 5.88-7.52 5.88-2.9 0-5.08-1.32-5.08-3.4 0-1.68 1.53-3.23 3.74-3.23 2.56 0 4.12 1.57 4.43 3.55 1.13-.61 1.7-1.57 1.7-2.83 0-1.87-1.89-3.13-4.3-3.13-3.19 0-5.27 1.7-7.5 4.22l-1.89-1.95c1.47-1.2 3.97-3.32 5.21-4.33 1.15-.97 3.32-2.71 4.35-3.61-1.07.02-3.93.15-5.02.23-.57.02-1.22.08-1.7.17l-.08-2.71c.59.06 1.3.1 1.89.1 1.09 0 5.54-.1 6.72-.21.86-.06 1.34-.15 1.6-.21l1.34 1.85zm-4.71 13.08c-.13-1.34-.9-2.23-2.04-2.23-.78 0-1.28.46-1.28.99 0 .78.88 1.3 2.1 1.3.44 0 .84-.02 1.22-.06zm24.5-10.89c-.63.38-1.3.73-2.06 1.11-1.3.65-3.91 1.87-5.79 3.09-1.74 1.13-2.9 2.33-2.9 3.78s1.45 2.29 4.33 2.29c2.14 0 4.96-.34 6.8-.76l-.04 3c-1.76.29-3.97.5-6.68.5-4.14 0-7.26-1.15-7.26-4.72 0-2.31 1.45-4.01 3.44-5.48-.97-1.78-1.97-3.99-2.92-6.19l2.62-1.07c.8 2.16 1.76 4.16 2.6 5.75 1.7-.99 3.51-1.91 4.49-2.46.78-.46 1.39-.82 1.91-1.26l1.45 2.41zm7.95 5.81c-.19.76-.36 1.41-.36 2.1 0 1.32 1.26 2.29 4.26 2.29 2.81 0 5.46-.31 7.31-.82l.02 2.92c-1.81.44-4.3.71-7.22.71-4.77 0-7.16-1.6-7.16-4.45 0-1.22.25-2.23.42-3l2.73.25zm-1.76-8.81c1.55.17 3.49.25 5.67.25 2.06 0 4.43-.13 6.03-.29v2.79c-1.45.1-4.03.25-6 .25-2.18 0-3.99-.1-5.69-.23v-2.77zm20.12-.49c1.09 0 5.23-.06 6.61-.15.46-.04 1.09-.13 1.49-.23l1.39 1.83c-.4.21-.86.5-1.15.69-1.2.86-3.19 2.31-4.77 3.67.67-.21 1.53-.29 2.1-.29 3.63 0 6.17 2.12 6.17 5.02 0 4.03-3.36 6.78-10.9 6.17l-.76-2.71c5.58.73 8.8-.65 8.8-3.46 0-1.64-1.53-2.79-3.88-2.79-3.61 0-5.77 2.29-7.75 4.49l-1.93-2.06c2.54-2.33 7.52-6.51 9.15-8-1.11.02-3.44.19-4.45.23-.52.04-1.2.13-1.64.19l-.1-2.71c.36.04.9.1 1.62.1zm29.18 15.81c-1.11-1.05-2.54-2.12-4.2-2.88.02.27.02.52.02.73 0 1.78-1.34 3.15-4.09 3.15-3.32 0-5.08-1.26-5.08-3.46s1.93-3.57 5.14-3.57c.44 0 .86.02 1.28.06-.04-.63-.06-1.28-.08-1.89h-1.07c-1.22 0-3.61-.1-5-.27l.02-2.46c1.2.23 3.91.38 5.02.38h.99v-2.16h-.99c-1.32 0-3.32-.13-4.51-.31l-.02-2.37c1.3.25 3.23.4 4.51.4h1.03v-.94c0-.38-.02-1.03-.1-1.43h2.83c-.06.42-.13.94-.15 1.47l-.02.82c1.62-.06 3.15-.23 4.96-.5l.06 2.39c-1.36.13-3.04.29-5.04.4l-.02 2.16c2.1-.08 3.84-.27 5.54-.48v2.46c-1.87.21-3.49.36-5.5.42.04.78.08 1.62.15 2.41 2.62.76 4.62 2.14 5.82 3.15l-1.49 2.33zm-6.84-3.73c-.55-.08-1.11-.15-1.7-.15-1.47 0-2.27.57-2.27 1.28 0 .78.73 1.28 2.16 1.28 1.11 0 1.83-.34 1.83-1.53 0-.23 0-.52-.02-.88zm13.03-10.84c1.74-.15 5.19-.46 8.99-.8 2.14-.17 4.41-.29 5.88-.36l.02 2.69c-1.11 0-2.9.02-4.01.27-2.52.67-4.39 3.36-4.39 5.82 0 3.42 3.19 4.66 6.72 4.83l-.97 2.88c-4.37-.27-8.48-2.62-8.48-7.14 0-3 1.66-5.35 3.07-6.4-1.81.19-6.17.65-8.59 1.18l-.27-2.86c.84-.02 1.64-.06 2.04-.1zm13.65 6.41l-1.6.71c-.52-1.15-.97-1.97-1.64-2.92l1.55-.65c.5.76 1.28 2.02 1.68 2.86zm2.44-1.03l-1.57.76c-.57-1.13-1.05-1.91-1.72-2.83l1.53-.71c.52.73 1.32 1.97 1.76 2.79zm8.9 11.02h-6.97v-2.27h4.47V87.59h2.5v13.42zM69.59 126.48c.8-.1 1.39-.21 1.93-.34 2.67-.63 4.72-2.54 4.72-5.56s-1.55-5.02-4.35-5.5c-.29 1.76-.65 3.7-1.24 5.65-1.24 4.2-3.04 6.76-5.31 6.76s-4.24-2.54-4.24-6.05c0-4.79 4.18-8.9 9.57-8.9s8.4 3.59 8.4 8.13-2.69 7.47-7.94 8.27l-1.55-2.46zm-1.62-6.3c.48-1.53.86-3.32 1.11-5.04-3.44.71-5.27 3.74-5.27 6.03 0 2.1.84 3.13 1.62 3.13.86 0 1.7-1.3 2.54-4.12zm32.03-8.42v1.89h-3.46c.38.48.71.99.9 1.39l-2.25.63c-.21-.57-.73-1.34-1.24-2.02h-1.09c-.52.71-1.09 1.32-1.64 1.81-.55-.36-1.62-.94-2.2-1.18.25-.19.5-.4.76-.63h-2.79c.29.48.55.99.69 1.36l-2.18.61c-.17-.55-.52-1.32-.92-1.97h-.23c-.57.78-1.15 1.47-1.72 2.02-.48-.4-1.47-1.07-2.04-1.34 1.28-1.05 2.46-2.65 3.09-4.2l2.33.63c-.15.34-.31.67-.48 1.01h4.66v1.49c.86-.9 1.57-2.02 2.02-3.13l2.39.57c-.15.36-.31.71-.5 1.07h5.92zm-15.62 9.62v8.5h-2.27v-14.13h7.81v5.63h-5.54zm0-4.18v.69h3.3v-.69h-3.3zm3.29 2.75v-.71h-3.3v.71h3.3zm11.47 7.43c0 1.15-.23 1.76-.99 2.1-.73.38-1.85.42-3.4.4-.04-.52-.29-1.24-.52-1.83h-5.48v.73H86.5v-6.61h7.94v5.54c.84.04 1.68.02 1.95.02.31 0 .42-.08.42-.4v-5.96h-5.63v-5.63h7.96v11.63zm-10.4-3.82v.88h3.49v-.88h-3.49zm3.49 3.13v-.9h-3.49v.9h3.49zm1.2-9.49v.69h3.38v-.69h-3.38zm3.38 2.75v-.71h-3.38v.71h3.38zm23.77 6.51h-8.25v3.42h-2.56v-3.42h-8.1v-2.31h8.1v-1.36h-6.26v-8.84h1.76c-.44-.8-1.13-1.81-1.74-2.58l2.14-.99c.76.88 1.7 2.1 2.12 2.94l-1.3.63h3.72c-.31-.86-.94-1.99-1.57-2.9l2.25-.84c.71.94 1.49 2.25 1.85 3.13l-1.51.61h3.21c.71-1.05 1.55-2.52 1.97-3.65l2.79.8c-.63 1.01-1.32 2.02-1.95 2.86h1.66v8.84h-6.57v1.36h8.25v2.31zm-10.82-10.48h-3.84v1.41h3.84v-1.41zm0 4.75v-1.43h-3.84v1.43h3.84zm6.56-4.75h-3.99v1.41h3.99v-1.41zm0 3.32h-3.99v1.43h3.99v-1.43zm13.21 4.52c-.25-.55-.76-1.36-1.26-2.12v8.19h-2.41v-7.54c-.67 1.62-1.47 3.11-2.29 4.16-.23-.71-.76-1.74-1.15-2.37 1.18-1.36 2.33-3.59 3.11-5.63h-2.67v-2.33h3v-2.44c-.88.17-1.74.31-2.56.42-.13-.57-.42-1.41-.69-1.91 2.31-.4 4.89-1.01 6.51-1.74l1.66 1.91c-.76.29-1.6.57-2.5.8v2.96h2.25v2.33h-2.25v.61c.57.46 2.29 2.29 2.69 2.75l-1.43 1.95zm12.7-3.01c-1.68 5.44-5.75 7.96-11.09 9.15-.25-.63-.8-1.62-1.24-2.12 2.1-.38 4.01-1.01 5.58-1.97-.57-.55-1.34-1.13-2.06-1.6-.48.31-.99.61-1.51.9-.31-.55-1.01-1.36-1.51-1.74 2.37-1.11 4.03-2.6 5.04-4.12-1.2.65-2.5 1.15-3.86 1.55-.25-.57-.84-1.49-1.28-1.97 1.55-.36 3.02-.92 4.3-1.68-.52-.5-1.24-1.07-1.87-1.49-.46.29-.94.61-1.47.88-.34-.52-1.07-1.36-1.55-1.72 2.65-1.22 4.35-2.96 5.25-4.58l2.44.44c-.27.48-.57.94-.9 1.39h2.81l.4-.1 1.6.71c-.92 2.54-2.56 4.43-4.6 5.82l1.7.29c-.25.48-.55.94-.86 1.41h2.65l.44-.08 1.6.63zm-7.5-6.67c-.13.13-.27.25-.42.38.69.42 1.45.97 2.02 1.49.65-.57 1.22-1.18 1.66-1.87h-3.25zm1.12 8.16c-.21.21-.44.42-.67.63.73.44 1.55 1.01 2.16 1.53.65-.63 1.22-1.34 1.66-2.16h-3.15zm27-7.28s-.02.82-.02 1.11c-.19 8.59-.36 11.63-1.03 12.6-.48.69-.97.9-1.66 1.05-.63.13-1.6.1-2.6.08-.04-.69-.31-1.7-.73-2.39.92.08 1.72.1 2.12.1.31 0 .52-.08.71-.36.44-.57.65-3.13.78-9.91h-1.89c-.27 5.63-1.24 9.95-4.77 12.74-.31-.5-.92-1.2-1.47-1.66-3.02.31-6.05.63-8.31.82l-.29-2.1c1.18-.08 2.65-.19 4.26-.29v-1.26h-3.7v-1.76h3.7v-.82h-3.61v-6.49h3.61v-.82h-4.14v-1.81h4.14v-.84c-1.22.08-2.41.15-3.55.17-.08-.5-.31-1.28-.55-1.76 3.11-.17 6.74-.52 9.05-1.03l1.09 1.87c-1.11.23-2.41.42-3.78.57v1.03h4.03v1.15h1.97c.02-1.39.02-2.83.02-4.39h2.39c0 1.53 0 3-.04 4.39h4.26zm-16.55 3.97h1.64v-.92h-1.64v.92zm1.64 2.43v-.94h-1.64v.94h1.64zm2.27 5.21c1.2-.08 2.44-.19 3.65-.29 1.64-2.27 2.14-5.27 2.29-9.03h-1.91v-1.64h-4.03v.82h3.72v6.49h-3.72v.82h3.8v1.76h-3.8v1.07zm1.64-7.64v-.92h-1.64v.92h1.64zm-1.64 1.49v.94h1.64v-.94h-1.64z" fill="#0091c3"/><path d="M167.22 113.93c1.51-.15 5.23-.5 9.05-.82 2.2-.19 4.3-.31 5.71-.36l.02 2.12c-1.15 0-2.96.02-4.05.29-2.75.84-4.58 3.78-4.58 6.24 0 3.8 3.53 5.04 6.95 5.21l-.76 2.23c-4.07-.21-8.34-2.39-8.34-6.97 0-3.15 1.83-5.67 3.51-6.74-1.81.19-6.91.69-9.24 1.2l-.21-2.29c.8-.02 1.51-.06 1.93-.1zm13.57 6.13l-1.3.59a19.41 19.41 0 00-1.68-2.94l1.26-.55c.5.73 1.28 2.02 1.72 2.9zm2.39-.97l-1.28.63c-.55-1.07-1.09-1.99-1.76-2.9l1.26-.57c.5.71 1.32 1.97 1.78 2.83zm7.02 10.27c-1.32-1.62-3.11-3.4-4.58-4.64l1.72-1.51c1.49 1.22 3.44 3.19 4.64 4.64l-1.78 1.51zM73.74 142.8l2.39.48c-.15.52-.34 1.32-.44 1.78-.27 1.39-1.03 4.39-1.85 6.47-.76 1.95-1.95 4.22-3.09 5.86l-2.29-.97c1.32-1.74 2.52-3.97 3.25-5.75.92-2.25 1.76-5.35 2.02-7.87zm5.29.46l2.16-.71c.84 1.57 2.25 4.62 3.09 6.74.8 2.02 1.91 5.29 2.48 7.26l-2.39.78c-.57-2.29-1.45-5.06-2.29-7.31-.84-2.18-2.14-5.19-3.04-6.76zm6.26-3.44c1.34 0 2.44 1.09 2.44 2.41s-1.09 2.41-2.44 2.41-2.41-1.07-2.41-2.41 1.07-2.41 2.41-2.41zm0 3.72c.71 0 1.32-.59 1.32-1.3s-.61-1.32-1.32-1.32-1.3.61-1.3 1.32.59 1.3 1.3 1.3zm19.38-.15c-.15.19-.46.73-.61 1.07-.73 1.74-1.99 4.12-3.44 6 2.16 1.85 4.7 4.56 6 6.15l-1.87 1.62c-1.36-1.87-3.49-4.2-5.54-6.11-2.25 2.39-5.06 4.64-8.08 6.03l-1.7-1.78c3.4-1.28 6.55-3.82 8.63-6.13 1.43-1.6 2.83-3.91 3.34-5.54h-7.71c-.82 0-1.95.1-2.29.13v-2.37c.42.06 1.64.15 2.29.15h7.79c.78 0 1.47-.1 1.83-.23l.82.63c-.42-.84-1.01-1.87-1.51-2.6l1.36-.57c.52.8 1.3 2.1 1.68 2.88l-1.2.52.21.17zm1.81-4.31c.55.78 1.34 2.1 1.72 2.86l-1.36.61c-.44-.9-1.13-2.1-1.7-2.9l1.34-.57zm3.03 17.35c1.81-1.28 3-3.17 3.61-5.1.61-1.87.61-5.96.61-8.38 0-.71-.04-1.22-.17-1.7H116c-.02.17-.1.94-.1 1.68 0 2.39-.08 6.87-.65 8.97a11.76 11.76 0 01-3.74 5.88l-1.99-1.34zm9.66.19c.08-.36.15-.84.15-1.32v-12.43c0-.86-.13-1.55-.13-1.68h2.44c-.02.13-.1.82-.1 1.68v11.61c1.83-.82 4.2-2.6 5.71-4.83l1.26 1.81c-1.78 2.37-4.72 4.58-7.14 5.79-.36.17-.57.36-.8.52l-1.39-1.15zm21.64-5.36h-5.79v-4.43h5.79v3.93c.86-.57 1.66-1.26 2.37-2.06-.78-1.55-1.36-3.49-1.74-5.63h-7.29v1.57c0 2.48-.38 5.98-2.31 8.34-.29-.36-1.05-.99-1.43-1.2 1.74-2.12 1.95-5.04 1.95-7.16v-3.13h8.84c-.08-.67-.15-1.34-.17-2.04h1.85c.02.69.06 1.36.15 2.04h3.17c-.67-.4-1.53-.82-2.27-1.09l.97-1.11c1.03.31 2.29.9 2.98 1.43l-.65.78h2.12v1.57h-6.07c.27 1.49.67 2.83 1.15 3.97.61-.97 1.11-2.04 1.49-3.17l1.85.42c-.61 1.7-1.43 3.25-2.41 4.6.73 1.15 1.53 1.83 2.27 1.83.48 0 .69-.71.8-2.56.4.34 1.03.69 1.51.86-.29 2.75-.94 3.46-2.41 3.46-1.24 0-2.39-.8-3.36-2.14-.71.73-1.47 1.41-2.29 1.95-.19-.27-.67-.76-1.07-1.09v.06zm-10.25 5.96c1.34-.94 2.23-2.5 2.71-4.05l1.72.61c-.52 1.68-1.34 3.44-2.79 4.54l-1.64-1.09zm10.5-11.63h-6.28v-1.3h6.28v1.3zm1.45 11.13c.86 0 1.01-.25 1.09-2.06.4.29 1.24.59 1.74.71-.23 2.48-.8 3.09-2.65 3.09h-3.76c-2.39 0-2.98-.52-2.98-2.35v-3h1.93v2.98c0 .55.17.63 1.24.63h3.38zm-3.32-8.57h-2.58v1.78h2.58v-1.78zm-.23 3.24c1.24.63 2.73 1.64 3.42 2.44l-1.36 1.2c-.65-.8-2.1-1.87-3.34-2.54l1.28-1.09zm7.37 1.53c1.45 1.2 2.94 2.92 3.57 4.24l-1.78.92c-.52-1.28-1.97-3.07-3.38-4.33l1.6-.84zm22.02 3.95c.73 0 .86-.23.94-2.1.38.31 1.2.61 1.74.69-.23 2.56-.8 3.13-2.48 3.13h-3.13c-2.18 0-2.69-.52-2.69-2.27v-2.08h-2.65c-.57 2.52-2.16 3.84-7.2 4.51-.15-.46-.61-1.3-.97-1.68 4.37-.42 5.69-1.18 6.17-2.83h-2.29v-8.61h11.48v8.61h-2.65v2.06c0 .5.15.57 1.01.57h2.69zm-13.74-9.74h-1.81v-4.37h2.92c-.4-.69-1.05-1.57-1.66-2.23l1.68-.76c.73.76 1.57 1.81 1.95 2.54l-.92.44h4.07c-.29-.8-.92-1.89-1.47-2.71l1.7-.59c.63.84 1.3 1.99 1.6 2.75l-1.41.55h3.55c.71-.86 1.6-2.2 2.08-3.15l2.06.65c-.63.88-1.34 1.76-1.97 2.5h3.34v4.37h-1.87v-2.73h-13.84v2.73zm3.05.98h7.75v-1.24h-7.75v1.24zm0 2.42h7.75v-1.26h-7.75v1.26zm0 2.47h7.75v-1.3h-7.75v1.3zm23.53 2.8c.73-.06 1.34-.17 1.85-.29 2.67-.61 5.04-2.54 5.04-5.9 0-3.02-1.81-5.4-5-5.79-.29 1.87-.67 3.88-1.24 5.84-1.26 4.24-2.98 6.61-5.06 6.61s-3.95-2.33-3.95-5.79c0-4.62 4.09-8.63 9.3-8.63s8.17 3.49 8.17 7.85-2.79 7.37-7.87 8.08l-1.24-1.97zm-1.47-6.6c.52-1.64.92-3.53 1.13-5.35-3.74.61-5.92 3.86-5.92 6.42 0 2.39 1.07 3.49 1.91 3.49.9 0 1.91-1.34 2.88-4.56zM75.45 181.31c-.29-.55-.92-1.45-1.53-2.27v8.65h-1.89v-8.34c-.78 1.85-1.7 3.59-2.6 4.75-.21-.55-.65-1.34-.97-1.81 1.28-1.47 2.62-4.03 3.42-6.28H69v-1.83h3.02v-2.81c-.9.17-1.81.29-2.65.4-.08-.44-.34-1.09-.57-1.51 2.25-.31 4.85-.9 6.34-1.53l1.34 1.49c-.76.29-1.64.55-2.58.78v3.19h2.12v-.36h4.93v-.92h-3.86v-1.22h3.86v-.9h-4.28v-1.26h4.28v-1.07h1.95v1.07h4.56v1.26H82.9v.9h4.05v1.22H82.9v.92h5.04v1.28h-11.8v.9h-2.25v1.03c.69.61 2.29 2.27 2.67 2.73l-1.13 1.53zm11.4 3.07h-6.99l1.45.92c-1.26.99-3.32 1.99-5 2.52-.29-.38-.84-.92-1.24-1.26 1.64-.46 3.55-1.36 4.56-2.18H77.4v-8.36h9.45v8.36zm-1.83-7.1h-5.86v1.13h5.86v-1.13zm0 2.33h-5.86v1.15h5.86v-1.15zm0 2.35h-5.86v1.15h5.86v-1.15zm-.8 2.42c1.39.8 3 1.78 3.97 2.44l-1.7.94c-.82-.63-2.29-1.64-3.57-2.44l1.3-.94zm23.03-1.43c-.59-.52-1.26-1.05-1.99-1.55-.88 2.54-2.48 4.45-5.38 5.94l-1.76-1.45c3.23-1.36 4.7-3.49 5.4-5.58-1.64-.88-3.49-1.57-5.48-1.78-.78 1.81-1.74 4.07-2.52 5.23-.78 1.13-1.68 1.62-2.9 1.62-1.66 0-2.92-1.18-2.92-3.09 0-3.13 2.88-5.54 6.99-5.69.67-1.51 1.36-3.13 1.93-4.26-.82.02-3.02.13-3.97.19-.44.02-1.09.08-1.62.15l-.08-2.14c.55.04 1.2.06 1.64.06 1.13 0 3.63-.1 4.56-.19.44-.02.88-.13 1.2-.25l1.3 1.05c-.23.25-.44.48-.61.78-.55.9-1.39 2.86-2.2 4.72 1.87.25 3.61.84 5.14 1.53.06-.4.1-.8.13-1.18.04-.65.04-1.39 0-2.06l2.14.23c-.06 1.45-.19 2.75-.42 3.95.94.52 1.74 1.07 2.39 1.51l-.97 2.27zm-11.42-4.45c-2.69.31-4.2 1.91-4.2 3.49 0 .73.48 1.2 1.03 1.2.44 0 .76-.17 1.18-.71.63-.88 1.32-2.48 1.99-3.97zm18.33 4.74c.92 1.45 2.65 2.12 4.96 2.2 2.33.08 6.99.02 9.62-.15-.23.46-.55 1.39-.65 1.99-2.37.1-6.59.15-8.99.04-2.67-.1-4.47-.8-5.79-2.41-.99.86-1.99 1.7-3.09 2.6l-1.01-2.02c.94-.59 2.06-1.36 3.04-2.16v-4.93h-2.69v-1.81h4.6v6.63zm-.97-9.8c-.67-.99-2.18-2.39-3.51-3.32l1.45-1.18c1.3.9 2.88 2.2 3.59 3.21l-1.53 1.28zm9.18-4.01c.42 6.19 1.89 11.17 6.13 13.33-.46.31-1.15 1.01-1.53 1.49-2.77-1.64-4.39-4.35-5.33-7.75-1.07 3.4-2.77 5.98-5.25 7.75-.31-.38-1.07-1.11-1.53-1.47 2.98-1.85 4.68-5.04 5.46-9.2l.71.1c-.13-.78-.21-1.6-.29-2.41H117v-1.85h5.38zm26.01 13.52c-.59-.52-1.26-1.05-1.99-1.55-.88 2.54-2.48 4.45-5.38 5.94l-1.76-1.45c3.23-1.36 4.7-3.49 5.4-5.58-1.64-.88-3.49-1.57-5.48-1.78-.78 1.81-1.74 4.07-2.52 5.23-.78 1.13-1.68 1.62-2.9 1.62-1.66 0-2.92-1.18-2.92-3.09 0-3.13 2.88-5.54 6.99-5.69.67-1.51 1.36-3.13 1.93-4.26-.82.02-3.02.13-3.97.19-.44.02-1.09.08-1.62.15l-.08-2.14c.55.04 1.2.06 1.64.06 1.13 0 3.63-.1 4.56-.19.44-.02.88-.13 1.2-.25l1.3 1.05c-.23.25-.44.48-.61.78-.55.9-1.39 2.86-2.2 4.72 1.87.25 3.61.84 5.14 1.53.06-.4.1-.8.13-1.18.04-.65.04-1.39 0-2.06l2.14.23c-.06 1.45-.19 2.75-.42 3.95.94.52 1.74 1.07 2.39 1.51l-.97 2.27zm-11.42-4.45c-2.69.31-4.2 1.91-4.2 3.49 0 .73.48 1.2 1.03 1.2.44 0 .76-.17 1.18-.71.63-.88 1.32-2.48 1.99-3.97zm20.28-9.37c-.57 1.47-1.28 2.98-2.08 4.39v14.17h-1.97V176.6c-.55.76-1.13 1.45-1.72 2.06-.19-.48-.76-1.57-1.09-2.02 1.99-1.97 3.86-5.04 5-8.1l1.87.59zm6.34 4.64v2.67h5.71v1.78h-5.71v2.79h6v1.83h-6v4.87h-1.99v-13.94h-1.18c-.88 1.64-1.85 3.11-2.86 4.22-.31-.34-1.07-1.03-1.51-1.32 1.85-1.93 3.53-4.96 4.54-7.98l1.87.5c-.34.9-.69 1.83-1.09 2.71h8.44v1.87h-6.21zm20.17 9.1c1.85 1.3 4.56 2.37 7.12 2.86-.44.42-1.01 1.22-1.3 1.74-2.73-.73-5.54-2.14-7.52-3.95v4.22h-1.91v-4.07c-1.99 1.68-4.83 3.04-7.45 3.78-.29-.5-.84-1.24-1.28-1.66 2.5-.52 5.23-1.62 7.08-2.92H172v-1.64h8.15v-1.28h-6.19v-1.47h6.19v-1.26h-7.22v-1.55h4.3c-.19-.59-.55-1.34-.88-1.91l.5-.08h-4.77v-1.64h3.11c-.31-.82-.94-1.97-1.53-2.83l1.7-.57c.65.9 1.39 2.18 1.68 3l-1.07.4h2.31v-3.59h1.83v3.59h2.08v-3.59h1.85v3.59h2.27l-.8-.25c.5-.84 1.15-2.16 1.47-3.11l2.02.5c-.57 1.03-1.2 2.08-1.74 2.86h3.02v1.64h-4.05c-.4.71-.82 1.41-1.18 1.99h4.45v1.55h-7.43v1.26h6.45v1.47h-6.45v1.28h8.27v1.64h-6.57zm-5.4-9.2c.38.61.76 1.36.9 1.87l-.61.13h4.43c.31-.57.65-1.32.92-1.99h-5.65z"/><circle cx="47.5" cy="32.5" r="32.5" fill="url(#a)"/><path d="M38.2 40.57l2.41-3.24c1.53 1.5 3.42 2.65 5.75 2.65 2.61 0 4.39-1.29 4.39-3.59 0-2.55-1.5-4.11-7.11-4.11v-3.7c4.74 0 6.28-1.64 6.28-3.94 0-2.02-1.26-3.21-3.45-3.24-1.85.04-3.35.91-4.88 2.3l-2.61-3.14c2.23-1.95 4.71-3.17 7.74-3.17 4.99 0 8.37 2.44 8.37 6.87 0 2.79-1.57 4.81-4.32 5.89v.17c2.93.8 5.16 2.96 5.16 6.35 0 4.74-4.15 7.5-9.07 7.5-4.08 0-6.83-1.53-8.65-3.59z" fill="#fff"/></svg>