<svg xmlns="http://www.w3.org/2000/svg" viewBox="0 0 195.18 30"><defs><style>.cls-1{fill:#286262;}.cls-2{fill:#3b83c9;}.cls-3{fill:#fff;}</style></defs><g id="レイヤー_2" data-name="レイヤー 2"><g id="レイヤー_1-2" data-name="レイヤー 1"><path class="cls-1" d="M35.56,8.46h3.28v9.47H55.07V8.53h3.67V18s.32,3.42-2.64,3.42h-7v3.47H45.6V21.41H38.26a2.68,2.68,0,0,1-2.7-2.77C35.43,15.68,35.56,8.46,35.56,8.46Z"/><path class="cls-1" d="M81.53,8.46H64.6a2.48,2.48,0,0,0-2.77,2.77V24.82h3.54V21.66h16v3.16h3.35V11.1C84.75,11,85.14,8.46,81.53,8.46Zm-.26,9.66H65.5V11.88H81.27Z"/><path class="cls-1" d="M139.55,8.46H122.61a2.48,2.48,0,0,0-2.77,2.77V24.82h3.54V21.66h16v3.16h3.34V11.1C142.76,11,143.15,8.46,139.55,8.46Zm-.33,9.66H123.45V11.88h15.77Z"/><path class="cls-1" d="M112,8.46s-3.8.07-5,1.74c-1.42,1.42-4.25,4.45-4.25,4.45s-2.83-3-4.25-4.45c-1.16-1.67-5-1.74-5-1.74H88.23V24.88h3.35V11.56h1.48c2.38,0,3.09,1.15,3.09,1.15l5,5.28v6.83h3.35V18l5-5.28s.71-1.15,3.09-1.15h1.48V24.88h3.35V8.46Z"/><path class="cls-1" d="M146.31,8.46V24.75h3.28V11.81h1.09a3.35,3.35,0,0,1,2.9,1.1c1.48,1.41,11.85,11.84,11.85,11.84H169V8.4h-3.41V19.6l-9.4-9S154,8.4,151.65,8.4s-5.28.06-5.34.06"/><path class="cls-1" d="M172.19,24.88v-8.5s0-7.92,7.79-7.92h15v3.42H180.05s-4.06-.32-4.06,3h15.77v3.35h-16v3.29h19.45v3.21Z"/><path class="cls-2" d="M30,15A15,15,0,1,1,15,0,15,15,0,0,1,30,15Z"/><polygon class="cls-3" points="27.81 7.2 21.91 5.25 14.97 9.25 8.09 5.25 2.19 7.23 3.44 13.31 10.35 17.31 10.35 25.85 15 30 19.65 25.85 19.65 17.28 26.56 13.31 27.81 7.2"/><polygon class="cls-2" points="25.17 8.78 22.47 8.06 15 12.39 7.53 8.06 4.83 8.78 5.54 11.47 13.04 15.77 13.04 24.81 15 26.8 16.96 24.81 16.96 15.8 24.43 11.47 25.17 8.78"/></g></g></svg>