<?xml version="1.0" encoding="UTF-8"?><svg id="_レイヤー_1" xmlns="http://www.w3.org/2000/svg" viewBox="0 0 26 26"><defs><style>.cls-1{fill:#fff;stroke:#0ab1bc;stroke-miterlimit:10;stroke-width:2px;}.cls-2{fill:#0ab1bc;fill-rule:evenodd;stroke-width:0px;}</style></defs><g id="Check-Square--Streamline-Core.svg"><path id="Rectangle_711" class="cls-1" d="m7.86,1h11.14s6,0,6,6v12s0,6-6,6H7s-6,0-6-6V7S1,1,7,1h.86Z"/><g id="Vector_Stroke_"><path class="cls-2" d="m19.6,9c.55.44.65,1.25.2,1.81,0,0,0,0,0,0l-6.86,8.57c-.43.54-1.22.64-1.78.23l-3.43-2.57c-.57-.43-.68-1.23-.26-1.8s1.23-.68,1.8-.26c0,0,0,0,0,0l2.43,1.82,6.08-7.6c.44-.56,1.25-.65,1.81-.2,0,0,0,0,0,0h0Z"/></g></g></svg>