<svg xmlns="http://www.w3.org/2000/svg" xmlns:xlink="http://www.w3.org/1999/xlink" viewBox="0 0 20 18"><defs><clipPath id="a"><path fill="none" d="M173-595h1280V29H173z"/></clipPath><clipPath id="b"><path fill="none" d="M-847-605h967v388h-967z"/></clipPath><clipPath id="c"><path fill="none" d="M173 29h640v249H173z"/></clipPath></defs><g clip-path="url(#a)" data-name="レイヤー 3"><image data-name="Inside the Heavy Industry Factory Close-up Footage of Industrial Engineer's Hands Working on the Personal Computer with Two Monitors Designing Turbine/ Engine in 3D, Using CAD Program." width="6000" height="4000" transform="matrix(.29 0 0 .29 -19.94 -835.44)" xlink:href="../../../design/%E9%85%8D%E7%BD%AE%E7%94%BB%E5%83%8F/%E6%96%B0%E5%B1%85%E6%B5%9C/IMG_7536_S.jpg"/></g><g data-name="レイヤー 2"><g clip-path="url(#b)"><image data-name="People who are working in the real estate agent" width="1000" height="667" transform="translate(-858.92 -652.12)" xlink:href="../../../../../../../Users/michiyo/Library/Application%20Support/Adobe/Creative%20Cloud%20Libraries/LIBS/F1872A0A44C6E986992016E5_AdobeID/links/0b58ac2a-2de3-401e-9e2c-69c443ee88da.jpeg"/></g><g clip-path="url(#c)"><image data-name="Engineer working on computer at the design of cad scheme." width="6000" height="4000" transform="matrix(.12 0 0 .12 18.95 5.08)" xlink:href="../../../../../../../Users/michiyo/Library/Application%20Support/Adobe/Creative%20Cloud%20Libraries/LIBS/F1872A0A44C6E986992016E5_AdobeID/links/020125c5-64ee-4598-ae54-c1e0f7d2059b.jpeg"/></g><path fill="#0ab1bc" d="M15.82 16.03H1.77V1.97h14.05v2.67l.62-.62V1.35H1.15v15.29h15.29V7.53l-.62.61v7.89z"/><path fill="#0ab1bc" d="M4.8 8.49l-.44.44 4.68 4.68L19.85 2.8l-.44-.44L9.04 12.73 4.8 8.49z"/></g></svg>